<svg viewBox="0 0 800 420" fill="none" xmlns="http://www.w3.org/2000/svg">
  <rect width="800" height="420" fill="#FAFAF8"/>
  <text x="40" y="36" fill="#7C3AED" font-family="Inter,sans-serif" font-size="13" font-weight="600">MULTI-AGENT ORCHESTRATION  PRODUCTION TOPOLOGY</text>
  <rect x="320" y="56" width="160" height="56" rx="8" fill="#7C3AED" fill-opacity="0.12" stroke="#7C3AED" stroke-width="2"/><text x="358" y="90" fill="#7C3AED" font-size="13" font-family="Inter,sans-serif" font-weight="600">Supervisor</text>
  <path d="M400 112v28" stroke="#7C3AED" stroke-width="2"/><path d="M160 140h480" stroke="#7C3AED" stroke-width="2"/>
  <path d="M160 140v28" stroke="#7C3AED" stroke-width="2"/><path d="M400 140v28" stroke="#7C3AED" stroke-width="2"/><path d="M640 140v28" stroke="#7C3AED" stroke-width="2"/>
  <rect x="80" y="168" width="160" height="56" rx="6" fill="#FFFFFF" stroke="#1B3A6B" stroke-width="1.5"/><text x="118" y="200" fill="#1B3A6B" font-size="12" font-family="Inter,sans-serif" font-weight="600">Researcher</text>
  <rect x="320" y="168" width="160" height="56" rx="6" fill="#FFFFFF" stroke="#1B3A6B" stroke-width="1.5"/><text x="358" y="200" fill="#1B3A6B" font-size="12" font-family="Inter,sans-serif" font-weight="600">Executor</text>
  <rect x="560" y="168" width="160" height="56" rx="6" fill="#FFFFFF" stroke="#1B3A6B" stroke-width="1.5"/><text x="598" y="200" fill="#1B3A6B" font-size="12" font-family="Inter,sans-serif" font-weight="600">Reviewer</text>
  <path d="M400 224v28" stroke="#374151" stroke-width="2"/>
  <rect x="240" y="252" width="320" height="56" rx="6" fill="#0F0F0E" fill-opacity="0.06" stroke="#374151" stroke-width="2"/><text x="310" y="284" fill="#374151" font-size="12" font-family="Inter,sans-serif" font-weight="600">Tool Gateway (auth · schema · rate limit)</text>
  <rect x="80" y="332" width="140" height="48" rx="4" fill="#EEF2F8" stroke="#2D5BA3"/><text x="108" y="360" fill="#1B3A6B" font-size="11" font-family="Inter,sans-serif">CRM API</text>
  <rect x="240" y="332" width="140" height="48" rx="4" fill="#EEF2F8" stroke="#2D5BA3"/><text x="262" y="360" fill="#1B3A6B" font-size="11" font-family="Inter,sans-serif">Vector DB</text>
  <rect x="400" y="332" width="140" height="48" rx="4" fill="#EEF2F8" stroke="#2D5BA3"/><text x="420" y="360" fill="#1B3A6B" font-size="11" font-family="Inter,sans-serif">Code Runner</text>
  <rect x="560" y="332" width="140" height="48" rx="4" fill="#EEF2F8" stroke="#E5E7EB"/><text x="580" y="360" fill="#6B7280" font-size="11" font-family="Inter,sans-serif">Audit Log</text>
</svg>
