<svg viewBox="0 0 800 420" fill="none" xmlns="http://www.w3.org/2000/svg">
  <rect width="800" height="420" fill="#FAFAF8"/>
  <text x="40" y="36" fill="#374151" font-family="Inter,sans-serif" font-size="13" font-weight="600">GPU CLUSTER  MULTI-TENANT SCHEDULING &amp; BIN PACKING</text>
  <rect x="40" y="56" width="720" height="56" rx="6" fill="#FFFFFF" stroke="#374151" stroke-width="2"/><text x="60" y="88" fill="#374151" font-size="12" font-family="Inter,sans-serif" font-weight="600">Scheduler Control Plane</text>
  <rect x="480" y="68" width="120" height="32" rx="4" fill="#EEF2F8" stroke="#1B3A6B"/><text x="498" y="88" fill="#1B3A6B" font-size="10" font-family="Inter,sans-serif">Priority Queue</text>
  <rect x="620" y="68" width="120" height="32" rx="4" fill="#EEF2F8" stroke="#1B3A6B"/><text x="638" y="88" fill="#1B3A6B" font-size="10" font-family="Inter,sans-serif">Cost Tags</text>
  <rect x="40" y="140" width="220" height="200" rx="8" fill="#FFFFFF" stroke="#065F46" stroke-width="2"/>
  <text x="60" y="168" fill="#065F46" font-size="12" font-family="Inter,sans-serif" font-weight="600">Node A  A100</text>
  <rect x="60" y="180" width="180" height="48" rx="4" fill="#065F46" fill-opacity="0.15" stroke="#065F46"/><text x="100" y="210" fill="#065F46" font-size="11" font-family="JetBrains Mono,monospace">Model-X (batch)</text>
  <rect x="60" y="240" width="85" height="40" rx="4" fill="#1B3A6B" fill-opacity="0.1" stroke="#1B3A6B"/><text x="72" y="265" fill="#1B3A6B" font-size="10" font-family="Inter,sans-serif">Tenant A</text>
  <rect x="155" y="240" width="85" height="40" rx="4" fill="#1B3A6B" fill-opacity="0.1" stroke="#1B3A6B"/><text x="167" y="265" fill="#1B3A6B" font-size="10" font-family="Inter,sans-serif">Tenant B</text>
  <rect x="290" y="140" width="220" height="200" rx="8" fill="#FFFFFF" stroke="#065F46" stroke-width="2"/>
  <text x="310" y="168" fill="#065F46" font-size="12" font-family="Inter,sans-serif" font-weight="600">Node B  L4</text>
  <rect x="310" y="180" width="180" height="48" rx="4" fill="#065F46" fill-opacity="0.15" stroke="#065F46"/><text x="350" y="210" fill="#065F46" font-size="11" font-family="JetBrains Mono,monospace">Model-Y (RT)</text>
  <rect x="310" y="240" width="180" height="40" rx="4" fill="#2D5BA3" fill-opacity="0.12" stroke="#2D5BA3"/><text x="350" y="265" fill="#1B3A6B" font-size="10" font-family="Inter,sans-serif">Dynamic Batching</text>
  <rect x="540" y="140" width="220" height="200" rx="8" fill="#FFFFFF" stroke="#E5E7EB" stroke-width="1.5"/>
  <text x="560" y="168" fill="#6B7280" font-size="12" font-family="Inter,sans-serif" font-weight="600">Spot / Batch Pool</text>
  <rect x="560" y="180" width="180" height="100" rx="4" fill="#0F0F0E" fill-opacity="0.04" stroke="#E5E7EB"/><text x="580" y="220" fill="#6B7280" font-size="10" font-family="Inter,sans-serif">Offline jobs · distillation · eval runs</text>
  <rect x="40" y="360" width="720" height="44" rx="6" fill="#374151" fill-opacity="0.06" stroke="#374151"/>
  <text x="60" y="388" fill="#374151" font-size="11" font-family="JetBrains Mono,monospace">utilization_target: 70% · quant: INT8/FP8 · spot_preemptible: enabled</text>
</svg>
