<svg viewBox="0 0 800 420" fill="none" xmlns="http://www.w3.org/2000/svg">
  <rect width="800" height="420" fill="#FAFAF8"/>
  <text x="40" y="36" fill="#1D4ED8" font-family="Inter,sans-serif" font-size="13" font-weight="600">AI PLATFORM SERVICE CATALOG  SELF-SERVICE APIS</text>
  <rect x="300" y="56" width="200" height="64" rx="8" fill="#1D4ED8" fill-opacity="0.12" stroke="#1D4ED8" stroke-width="2"/><text x="340" y="86" fill="#1D4ED8" font-size="13" font-family="Inter,sans-serif" font-weight="600">Platform APIs</text><text x="328" y="106" fill="#6B7280" font-size="10" font-family="Inter,sans-serif">Golden Path Templates</text>
  <path d="M400 120v24" stroke="#1D4ED8" stroke-width="2"/><path d="M120 144h560" stroke="#1D4ED8" stroke-width="2"/>
  <path d="M120 144v24" stroke="#1D4ED8" stroke-width="2"/><path d="M320 144v24" stroke="#1D4ED8" stroke-width="2"/><path d="M520 144v24" stroke="#1D4ED8" stroke-width="2"/><path d="M680 144v24" stroke="#1D4ED8" stroke-width="2"/>
  <rect x="40" y="168" width="160" height="72" rx="6" fill="#FFFFFF" stroke="#1B3A6B" stroke-width="1.5"/><text x="72" y="200" fill="#1B3A6B" font-size="12" font-family="Inter,sans-serif" font-weight="600">ML Teams</text><text x="58" y="220" fill="#6B7280" font-size="10" font-family="Inter,sans-serif">train · evaluate · deploy</text>
  <rect x="240" y="168" width="160" height="72" rx="6" fill="#FFFFFF" stroke="#1B3A6B" stroke-width="1.5"/><text x="262" y="200" fill="#1B3A6B" font-size="12" font-family="Inter,sans-serif" font-weight="600">Data Eng</text><text x="252" y="220" fill="#6B7280" font-size="10" font-family="Inter,sans-serif">features · pipelines</text>
  <rect x="440" y="168" width="160" height="72" rx="6" fill="#FFFFFF" stroke="#1B3A6B" stroke-width="1.5"/><text x="462" y="200" fill="#1B3A6B" font-size="12" font-family="Inter,sans-serif" font-weight="600">Product</text><text x="456" y="220" fill="#6B7280" font-size="10" font-family="Inter,sans-serif">agents · APIs</text>
  <rect x="640" y="168" width="120" height="72" rx="6" fill="#FFFFFF" stroke="#1B3A6B" stroke-width="1.5"/><text x="662" y="200" fill="#1B3A6B" font-size="12" font-family="Inter,sans-serif" font-weight="600">SRE</text><text x="654" y="220" fill="#6B7280" font-size="10" font-family="Inter,sans-serif">SLOs · cost</text>
  <rect x="40" y="280" width="720" height="100" rx="8" fill="#FFFFFF" stroke="#E5E7EB"/>
  <text x="60" y="308" fill="#374151" font-size="12" font-family="Inter,sans-serif" font-weight="600">Shared Services</text>
  <rect x="60" y="320" width="130" height="40" rx="4" fill="#EEF2F8" stroke="#1D4ED8"/><text x="82" y="345" fill="#1D4ED8" font-size="10" font-family="Inter,sans-serif">Model Registry</text>
  <rect x="210" y="320" width="130" height="40" rx="4" fill="#EEF2F8" stroke="#1D4ED8"/><text x="238" y="345" fill="#1D4ED8" font-size="10" font-family="Inter,sans-serif">Pipelines</text>
  <rect x="360" y="320" width="130" height="40" rx="4" fill="#EEF2F8" stroke="#1D4ED8"/><text x="378" y="345" fill="#1D4ED8" font-size="10" font-family="Inter,sans-serif">Observability</text>
  <rect x="510" y="320" width="130" height="40" rx="4" fill="#EEF2F8" stroke="#1D4ED8"/><text x="536" y="345" fill="#1D4ED8" font-size="10" font-family="Inter,sans-serif">Policy Engine</text>
  <rect x="660" y="320" width="80" height="40" rx="4" fill="#0F0F0E" fill-opacity="0.05" stroke="#E5E7EB"/><text x="672" y="345" fill="#6B7280" font-size="10" font-family="Inter,sans-serif">Portal</text>
</svg>
