<svg viewBox="0 0 800 420" fill="none" xmlns="http://www.w3.org/2000/svg">
  <rect width="800" height="420" fill="#FAFAF8"/>
  <text x="40" y="36" fill="#B45309" font-family="Inter,sans-serif" font-size="13" font-weight="600">ENTERPRISE RAG  INGESTION TO GROUNDED GENERATION</text>
  <rect x="40" y="60" width="120" height="48" rx="6" fill="#FFFFFF" stroke="#B45309" stroke-width="2"/><text x="62" y="90" fill="#B45309" font-size="11" font-family="Inter,sans-serif" font-weight="600">Sources</text>
  <path d="M160 84h40" stroke="#B45309" stroke-width="2"/>
  <rect x="200" y="52" width="140" height="64" rx="6" fill="#B45309" fill-opacity="0.1" stroke="#B45309" stroke-width="2"/><text x="228" y="80" fill="#B45309" font-size="11" font-family="Inter,sans-serif" font-weight="600">Ingestion</text><text x="218" y="100" fill="#6B7280" font-size="10" font-family="Inter,sans-serif">Chunk · ACL · Embed</text>
  <path d="M340 84h40" stroke="#B45309" stroke-width="2"/>
  <rect x="380" y="60" width="140" height="48" rx="6" fill="#FFFFFF" stroke="#1B3A6B" stroke-width="2"/><text x="408" y="90" fill="#1B3A6B" font-size="11" font-family="Inter,sans-serif" font-weight="600">Vector Index</text>
  <rect x="40" y="160" width="720" height="100" rx="8" fill="#FFFFFF" stroke="#E5E7EB" stroke-width="1.5"/>
  <text x="60" y="188" fill="#374151" font-size="12" font-family="Inter,sans-serif" font-weight="600">Query Path</text>
  <rect x="60" y="200" width="110" height="44" rx="4" fill="#EEF2F8" stroke="#2D5BA3"/><text x="78" y="227" fill="#1B3A6B" font-size="10" font-family="Inter,sans-serif">User Query</text>
  <path d="M170 222h30" stroke="#1B3A6B" stroke-width="1.5"/>
  <rect x="200" y="200" width="120" height="44" rx="4" fill="#EEF2F8" stroke="#B45309"/><text x="216" y="227" fill="#B45309" font-size="10" font-family="Inter,sans-serif">Hybrid Search</text>
  <path d="M320 222h30" stroke="#1B3A6B" stroke-width="1.5"/>
  <rect x="350" y="200" width="120" height="44" rx="4" fill="#EEF2F8" stroke="#1B3A6B"/><text x="368" y="227" fill="#1B3A6B" font-size="10" font-family="Inter,sans-serif">Reranker</text>
  <path d="M470 222h30" stroke="#1B3A6B" stroke-width="1.5"/>
  <rect x="500" y="200" width="120" height="44" rx="4" fill="#EEF2F8" stroke="#1B3A6B"/><text x="512" y="227" fill="#1B3A6B" font-size="10" font-family="Inter,sans-serif">LLM + Citations</text>
  <rect x="40" y="290" width="340" height="90" rx="6" fill="#0F0F0E" fill-opacity="0.04" stroke="#E5E7EB"/><text x="60" y="318" fill="#374151" font-size="11" font-family="Inter,sans-serif" font-weight="600">Evaluation Harness</text><text x="60" y="340" fill="#6B7280" font-size="10" font-family="JetBrains Mono,monospace">recall@k · faithfulness · latency · ACL compliance</text>
  <rect x="400" y="290" width="360" height="90" rx="6" fill="#B45309" fill-opacity="0.06" stroke="#B45309"/><text x="420" y="318" fill="#B45309" font-size="11" font-family="Inter,sans-serif" font-weight="600">Governance</text><text x="420" y="340" fill="#6B7280" font-size="10" font-family="Inter,sans-serif">Document ACLs propagate to chunk level</text>
</svg>
