<svg viewBox="0 0 580 420" fill="none" xmlns="http://www.w3.org/2000/svg">
  <rect width="580" height="420" rx="16" fill="#F4F6FA"/>
  <rect x="40" y="40" width="500" height="340" rx="12" fill="#FFFFFF" stroke="#E5E7EB"/>
  <rect x="72" y="72" width="120" height="56" rx="8" fill="#1B3A6B" fill-opacity="0.08" stroke="#1B3A6B" stroke-opacity="0.2"/>
  <rect x="220" y="72" width="120" height="56" rx="8" fill="#1B3A6B" fill-opacity="0.08" stroke="#1B3A6B" stroke-opacity="0.2"/>
  <rect x="368" y="72" width="140" height="56" rx="8" fill="#2D5BA3" fill-opacity="0.12" stroke="#2D5BA3" stroke-opacity="0.3"/>
  <rect x="72" y="160" width="436" height="88" rx="10" fill="#1B3A6B" fill-opacity="0.06" stroke="#1B3A6B" stroke-opacity="0.15"/>
  <rect x="72" y="280" width="200" height="72" rx="10" fill="#FFFFFF" stroke="#E5E7EB"/>
  <rect x="308" y="280" width="200" height="72" rx="10" fill="#FFFFFF" stroke="#E5E7EB"/>
  <circle cx="120" cy="100" r="6" fill="#2D5BA3"/>
  <circle cx="268" cy="100" r="6" fill="#1B3A6B"/>
  <circle cx="416" cy="100" r="6" fill="#6B8FD4"/>
  <path d="M126 100h88M274 100h88M120 106v54M268 106v54M416 106v54M120 160h296" stroke="#1B3A6B" stroke-opacity="0.25" stroke-width="2"/>
  <path d="M120 316h80M336 316h80" stroke="#1B3A6B" stroke-opacity="0.35" stroke-width="3" stroke-linecap="round"/>
</svg>
